<?xml version="1.0" encoding="UTF-8" standalone="no"?>
<svg
   xmlns:dc="http://purl.org/dc/elements/1.1/"
   xmlns:cc="http://creativecommons.org/ns#"
   xmlns:rdf="http://www.w3.org/1999/02/22-rdf-syntax-ns#"
   xmlns:svg="http://www.w3.org/2000/svg"
   xmlns="http://www.w3.org/2000/svg"
   xmlns:sodipodi="http://sodipodi.sourceforge.net/DTD/sodipodi-0.dtd"
   xmlns:inkscape="http://www.inkscape.org/namespaces/inkscape"
   version="1.0"
   width="800.000000pt"
   height="600.000000pt"
   viewBox="0 0 800.000000 600.000000"
   preserveAspectRatio="xMidYMid meet"
   id="svg3743"
   sodipodi:docname="page_not_found5.svg"
   inkscape:version="0.92.3 (2405546, 2018-03-11)">
  <defs
     id="defs3747" />
  <sodipodi:namedview
     pagecolor="#ffffff"
     bordercolor="#666666"
     borderopacity="1"
     objecttolerance="10"
     gridtolerance="10"
     guidetolerance="10"
     inkscape:pageopacity="0"
     inkscape:pageshadow="2"
     inkscape:window-width="1280"
     inkscape:window-height="961"
     id="namedview3745"
     showgrid="false"
     inkscape:zoom="1.905"
     inkscape:cx="481.48499"
     inkscape:cy="403.28175"
     inkscape:window-x="-8"
     inkscape:window-y="-8"
     inkscape:window-maximized="1"
     inkscape:current-layer="svg3743" />
  <metadata
     id="metadata3731">
Created by potrace 1.15, written by Peter Selinger 2001-2017
<rdf:RDF>
  <cc:Work
     rdf:about="">
    <dc:format>image/svg+xml</dc:format>
    <dc:type
       rdf:resource="http://purl.org/dc/dcmitype/StillImage" />
    <dc:title></dc:title>
  </cc:Work>
</rdf:RDF>
</metadata>
  <g
     transform="translate(0.000000,600.000000) scale(0.100000,-0.100000)"
     fill="#000000"
     stroke="none"
     id="g3741"
     style="fill:#ffffff">
    <path
       d="M3914 5511 c-40 -25 -48 -36 -194 -289 -120 -209 -122 -214 -118 -264 4 -39 12 -57 37 -81 l31 -32 126 -3 125 -4 -3 -91 -3 -92 -353 -3 -353 -2 3 -157 3 -157 350 0 350 -1 3 -67 3 -67 -553 0 c-525 0 -553 -1 -578 -19 -49 -36 -50 -45 -50 -399 0 -192 4 -343 10 -357 12 -33 66 -66 106 -66 43 0 44 -11 43 -319 -1 -201 -4 -250 -12 -226 -6 17 -27 61 -47 99 -54 107 -121 131 -186 68 -49 -48 -94 -163 -185 -470 -19 -67 -23 -72 -49 -72 -27 0 -27 1 -32 74 -6 91 -41 170 -105 234 -46 46 -152 102 -193 102 -38 0 -46 11 -53 62 -9 66 -48 139 -98 181 -39 34 -113 67 -149 67 -14 0 -19 13 -23 60 -7 59 -35 140 -66 189 -26 41 -24 4 4 -66 15 -37 30 -99 34 -137 l6 -69 55 -11 c67 -14 119 -44 155 -92 32 -42 55 -111 55 -165 l0 -37 59 -10 c80 -14 148 -51 200 -107 60 -66 84 -123 89 -222 l5 -83 31 0 c54 0 146 -20 200 -44 110 -49 222 -172 249 -273 9 -34 17 -45 37 -49 68 -14 106 -31 149 -69 45 -41 47 -42 81 -29 19 7 64 13 100 13 52 1 77 -5 125 -28 114 -54 118 -44 -69 -230 l-163 -163 -13 31 c-18 46 -71 87 -127 100 -46 11 -50 15 -60 54 -13 47 -79 129 -123 152 -47 24 -118 38 -165 31 -73 -11 -56 -31 28 -31 61 0 79 -4 120 -28 57 -34 100 -90 116 -150 10 -42 13 -45 53 -51 58 -9 111 -46 133 -92 l18 -38 -208 -204 c-156 -153 -205 -206 -196 -215 8 -8 106 83 393 369 211 208 386 384 390 390 11 16 -47 71 -107 101 -60 31 -162 41 -231 24 -46 -12 -48 -11 -80 20 l-33 31 0 664 -1 664 455 0 455 0 0 -70 0 -70 -352 -2 -353 -3 -3 -197 -2 -198 765 0 765 0 0 138 0 138 -63 62 -63 62 -292 0 -292 0 0 70 0 70 460 0 460 0 0 -665 0 -665 -37 -33 -36 -34 -46 14 c-105 33 -256 -3 -326 -78 l-30 -31 225 -219 c124 -121 318 -312 432 -426 139 -138 211 -204 218 -197 6 6 -59 78 -195 214 -113 113 -205 212 -205 222 0 20 44 74 74 90 11 7 41 15 65 18 43 5 44 6 56 52 22 88 89 155 180 179 38 11 96 5 163 -16 16 -5 22 -3 22 8 0 9 -21 20 -61 31 -77 22 -138 15 -207 -25 -59 -33 -96 -78 -122 -146 -16 -42 -22 -49 -52 -54 -49 -8 -103 -44 -129 -85 l-22 -36 -198 198 -199 198 28 23 c71 59 193 78 291 46 l52 -16 33 36 c36 39 106 76 144 77 15 0 26 9 34 28 81 201 195 311 369 357 30 8 70 15 90 15 l36 0 7 70 c12 121 82 227 184 279 22 11 69 25 106 32 l66 12 0 54 c0 65 16 107 61 158 38 43 119 85 165 85 31 0 31 0 38 66 7 72 43 178 78 227 12 18 41 56 66 85 24 29 41 56 38 59 -4 4 -31 -18 -62 -48 -71 -70 -128 -181 -144 -283 l-13 -75 -36 -6 c-118 -20 -221 -140 -221 -256 0 -34 -3 -39 -27 -44 -117 -24 -171 -53 -236 -125 -50 -55 -82 -129 -93 -209 -6 -44 -10 -51 -28 -51 -39 0 -139 -30 -197 -60 l-57 -29 -21 59 c-38 103 -107 137 -170 84 l-31 -26 0 430 0 429 42 6 c26 3 51 15 67 31 l26 26 3 347 c3 366 0 392 -42 416 -15 9 -168 13 -576 17 l-555 5 0 65 0 65 330 2 c182 1 340 3 353 3 22 0 22 1 22 155 l0 155 -352 2 -353 3 0 90 0 90 123 5 124 5 34 37 c29 32 34 45 34 86 0 43 -13 70 -138 287 -114 196 -145 242 -173 257 -43 23 -86 23 -125 -1z m121 -36 c29 -18 285 -469 285 -500 0 -38 -25 -79 -55 -93 -41 -19 -547 -17 -584 3 -34 17 -56 64 -48 103 3 15 65 130 138 256 108 187 138 231 163 242 33 15 69 11 101 -11z m675 -980 l0 -125 -735 0 -735 0 0 125 0 125 735 0 735 0 0 -125z m446 -346 c18 -20 19 -43 22 -365 l3 -344 -25 -25 -25 -25 -1145 0 c-680 0 -1155 4 -1169 9 -43 17 -47 52 -47 398 l0 324 25 24 24 25 1159 0 1159 0 19 -21z m-2176 -1445 c0 -594 -1 -656 -16 -650 -9 3 -20 6 -25 6 -5 0 -9 262 -9 650 l0 650 25 0 25 0 0 -656z m2060 11 l0 -645 -26 -10 c-14 -6 -27 -10 -30 -10 -2 0 -4 295 -4 655 l0 655 30 0 30 0 0 -645z m-448 413 l3 -53 58 -3 57 -3 0 -109 0 -110 -735 0 -735 0 0 165 0 165 674 0 675 0 3 -52z m-1824 -154 c27 -19 66 -94 98 -188 32 -93 32 -110 -2 -102 -17 5 -37 0 -61 -14 -43 -25 -62 -25 -113 1 l-40 21 -43 -21 c-47 -23 -67 -26 -67 -12 0 5 14 49 31 98 72 204 128 266 197 217z m-73 -334 c38 -25 58 -25 106 2 31 17 45 20 67 12 l27 -9 3 -288 c1 -170 -1 -287 -7 -287 -5 0 -16 21 -25 46 -48 143 -186 266 -339 305 -26 6 -47 16 -47 23 0 6 11 47 24 91 21 73 25 80 53 86 17 3 41 13 54 22 30 22 47 21 84 -3z m2500 -132 c36 -28 60 -85 44 -104 -15 -18 -39 -17 -63 1 -26 19 -51 19 -81 -1 -24 -16 -25 -15 -25 5 0 31 25 76 56 100 33 26 35 26 69 -1z m28 -131 c26 0 47 -3 47 -6 0 -4 -21 -27 -46 -51 -59 -58 -100 -117 -130 -188 l-23 -57 -1 145 c0 141 1 146 23 157 12 6 36 9 52 6 17 -3 51 -6 78 -6z"
       id="path3733"
       style="fill:#ffffff" />
    <path
       d="M5960 4881 c-98 -32 -167 -98 -195 -187 -28 -90 -17 -143 70 -326 71 -150 75 -161 75 -228 l0 -70 110 0 110 0 0 67 c0 63 4 73 67 192 99 188 102 195 109 254 18 155 -102 294 -261 303 -33 2 -71 0 -85 -5z m141 -33 c90 -30 160 -113 175 -205 9 -57 -17 -139 -61 -190 -127 -149 -366 -96 -421 93 -20 69 -13 119 24 187 53 99 180 151 283 115z m-148 -502 c29 -12 37 -20 37 -41 0 -24 3 -26 38 -23 32 3 37 7 40 29 3 22 11 29 48 39 24 7 47 17 50 21 3 5 10 9 15 9 5 0 -9 -36 -33 -80 l-43 -80 -82 0 -83 0 -40 80 c-22 44 -40 82 -40 85 0 4 12 -1 28 -9 15 -9 44 -22 65 -30z"
       id="path3735"
       style="fill:#ffffff" />
    <path
       d="M4581 2731 c-34 -34 -52 -79 -91 -232 -28 -109 -35 -149 -25 -149 7 0 19 28 29 68 32 129 36 140 52 146 9 3 25 -1 37 -9 28 -19 62 -19 92 1 23 15 27 15 49 1 15 -10 31 -37 41 -69 22 -69 62 -138 80 -138 10 0 7 11 -10 43 -13 23 -40 89 -60 147 -46 130 -57 151 -95 184 -37 31 -73 33 -99 7z m90 -32 c11 -11 29 -39 39 -62 l19 -42 -26 -3 c-14 -2 -37 -11 -50 -19 -21 -14 -25 -14 -48 1 -13 9 -34 16 -45 16 -18 0 -20 4 -14 23 8 27 33 78 46 95 16 19 56 14 79 -9z"
       id="path3737"
       style="fill:#ffffff" />
    <path
       d="M3394 2720 c-28 -11 -73 -66 -95 -115 -72 -162 -107 -255 -95 -255 7 0 25 27 40 60 26 57 28 59 58 53 22 -4 43 0 74 17 l42 24 46 -24 c39 -21 50 -23 76 -13 27 10 30 9 35 -10 22 -98 24 -119 15 -166 -11 -58 0 -132 26 -183 9 -18 43 -61 75 -96 61 -65 70 -86 44 -96 -9 -3 -25 -25 -36 -48 -11 -24 -42 -79 -69 -123 -51 -81 -68 -141 -55 -192 3 -16 26 -62 51 -104 28 -48 44 -88 44 -109 0 -18 6 -41 13 -49 14 -16 42 -297 36 -356 -2 -16 2 -69 10 -116 12 -80 11 -89 -8 -144 -35 -99 -26 -135 42 -166 69 -31 155 -21 205 24 28 26 29 74 1 129 -19 38 -21 52 -14 133 3 49 6 121 5 158 l-1 68 38 -3 c36 -3 38 -5 41 -42 2 -21 -1 -43 -6 -48 -5 -5 -3 -34 5 -71 18 -86 16 -120 -9 -199 -28 -87 -20 -114 42 -145 100 -51 230 -9 230 74 0 19 -10 57 -21 84 -19 43 -21 60 -14 127 4 42 8 100 9 127 14 339 18 381 40 391 14 6 22 20 24 44 2 19 22 66 45 104 37 62 42 78 42 131 -1 51 -7 71 -39 128 -21 37 -53 86 -72 108 -19 23 -34 45 -34 50 0 4 -9 17 -21 28 -29 27 -18 56 46 113 100 90 128 225 71 341 -34 70 -57 91 -91 83 -26 -7 -26 -7 -19 -74 l7 -67 -24 30 c-14 17 -31 43 -39 60 -8 16 -35 50 -60 75 -29 30 -44 52 -42 66 5 38 -30 85 -73 100 -34 11 -47 11 -78 0 -43 -15 -82 -67 -73 -99 4 -15 -5 -30 -35 -55 -22 -19 -54 -59 -70 -88 -29 -51 -55 -81 -63 -73 -3 2 0 25 6 51 9 36 8 51 -2 63 -19 23 -46 18 -73 -15 -14 -16 -28 -30 -30 -30 -3 0 -8 21 -12 48 -4 26 -18 82 -32 126 -37 119 -112 184 -179 156z m95 -50 c31 -31 74 -131 69 -159 -4 -22 -54 -26 -83 -7 -30 20 -85 21 -111 1 -26 -20 -74 -20 -74 0 0 28 57 140 85 168 37 36 75 35 114 -3z m526 -60 c3 -5 14 -10 23 -10 26 0 45 -50 30 -81 -12 -26 -74 -54 -84 -38 -3 5 -14 9 -24 9 -28 0 -51 53 -37 85 7 14 20 25 29 25 9 0 20 5 23 10 3 6 12 10 20 10 8 0 17 -4 20 -10z m-68 -149 c52 -19 87 -16 130 12 6 4 17 5 25 1 27 -11 89 -101 105 -153 17 -51 17 -54 -2 -67 -37 -27 -101 -39 -215 -39 -138 0 -220 22 -220 58 1 52 52 151 97 187 14 11 26 20 27 20 1 0 25 -9 53 -19z m-250 -118 c1 -43 4 -130 7 -193 l6 -115 -35 39 c-35 40 -65 116 -65 166 0 58 53 180 79 180 4 0 8 -35 8 -77z m637 40 c65 -98 50 -252 -31 -325 -17 -16 -18 -11 -15 95 1 62 3 147 4 190 1 42 5 77 10 77 4 0 19 -17 32 -37z m-465 -194 c74 -15 243 -7 301 15 85 33 82 33 78 -10 -4 -48 -35 -68 -139 -90 -120 -26 -298 -3 -351 44 -11 9 -18 29 -18 52 l0 38 36 -19 c20 -10 62 -23 93 -30z m23 -120 c119 -19 238 -3 352 46 17 8 18 5 12 -31 -10 -51 -18 -62 -27 -38 -5 14 -8 7 -8 -22 -1 -52 -11 -104 -21 -104 -4 0 -12 10 -18 23 l-11 22 0 -22 -1 -23 -194 0 -193 0 -7 31 c-3 17 -6 43 -7 58 0 22 -2 23 -8 7 -7 -18 -8 -18 -14 -2 -4 10 -7 37 -7 61 l0 43 39 -19 c21 -10 72 -24 113 -30z m469 -362 c36 -68 41 -84 37 -125 -3 -26 -16 -65 -29 -87 l-24 -40 -3 35 c-4 64 -33 142 -54 148 -10 2 -25 17 -33 33 -13 23 -13 29 -1 36 19 12 36 48 36 79 0 25 2 26 14 14 8 -8 33 -50 57 -93z m-661 52 c0 -11 11 -31 25 -45 20 -20 23 -29 15 -45 -6 -10 -15 -19 -20 -19 -5 0 -18 -10 -30 -22 -15 -17 -20 -35 -20 -77 0 -58 6 -75 28 -82 10 -3 8 -9 -6 -22 -19 -18 -21 -17 -52 35 -21 33 -35 71 -38 100 -4 40 1 57 39 127 41 77 59 92 59 50z m445 8 c41 -35 48 -157 10 -157 -11 0 -15 13 -15 51 0 66 -24 62 -28 -4 l-3 -47 -114 0 -114 0 -3 47 c-4 67 -28 70 -28 3 0 -37 -4 -50 -12 -48 -17 6 -23 111 -8 138 17 32 45 39 172 39 107 1 119 -1 143 -22z m-350 -153 c2 -11 16 -26 30 -32 24 -11 35 -42 15 -42 -5 0 -10 -7 -10 -15 0 -10 11 -15 35 -15 24 0 35 5 35 15 0 8 -4 15 -10 15 -5 0 -10 9 -10 20 0 19 7 20 115 20 108 0 115 -1 115 -20 0 -11 -4 -20 -10 -20 -5 0 -10 -7 -10 -15 0 -10 11 -15 35 -15 24 0 35 5 35 15 0 8 -4 15 -10 15 -5 0 -10 9 -10 20 0 13 7 20 19 20 28 0 43 25 45 70 1 36 2 39 13 23 14 -18 19 -345 7 -377 -12 -32 -24 -15 -24 34 0 47 -1 50 -19 40 -33 -17 -51 -12 -51 14 0 13 -9 35 -21 50 -19 24 -25 26 -107 26 -74 0 -89 -3 -109 -22 -13 -13 -23 -33 -23 -50 0 -30 -12 -34 -54 -18 -26 9 -26 9 -26 -42 0 -36 -3 -49 -10 -42 -13 13 -15 378 -3 397 5 7 9 1 11 -18 1 -16 5 -39 7 -51z m305 -297 c0 -24 -5 -48 -12 -55 -7 -7 -44 -12 -94 -12 -91 0 -94 2 -94 71 l0 39 100 0 100 0 0 -43z m-105 -101 c119 0 158 3 188 16 30 14 37 14 37 3 0 -15 -56 -75 -70 -75 -5 0 -15 -3 -24 -6 -12 -4 -16 0 -16 15 0 12 -6 21 -15 21 -8 0 -15 -9 -15 -20 0 -18 -7 -20 -80 -20 -73 0 -80 2 -80 20 0 11 -7 20 -15 20 -8 0 -15 -9 -15 -20 0 -24 -11 -25 -50 -5 -28 14 -70 60 -70 76 0 4 17 1 38 -8 29 -13 70 -17 187 -17z m-195 -137 c14 -5 30 -19 35 -32 8 -17 20 -23 53 -25 l42 -3 0 -45 c0 -40 -2 -44 -25 -44 -21 0 -25 5 -25 30 0 28 -2 30 -40 30 -38 0 -40 -2 -40 -30 0 -25 -4 -30 -25 -30 -22 0 -25 5 -25 33 0 17 -3 56 -7 86 -6 51 -5 54 13 47 10 -5 30 -12 44 -17z m450 -48 c0 -82 -6 -101 -30 -101 -13 0 -20 9 -22 28 -3 24 -7 27 -45 30 -42 3 -43 2 -43 -27 0 -24 -4 -31 -20 -31 -11 0 -20 6 -20 14 0 7 -3 28 -6 45 l-6 31 51 0 c46 0 53 3 63 26 10 22 50 52 71 54 4 0 7 -31 7 -69z m-450 -156 c0 -22 4 -25 39 -25 33 0 40 4 43 23 2 14 11 23 26 25 22 3 22 3 16 -85 -4 -48 -8 -90 -10 -92 -2 -2 -15 8 -28 22 -14 15 -32 27 -41 27 -25 0 -55 -19 -55 -35 0 -8 -4 -15 -9 -15 -4 0 -11 24 -14 53 -4 28 -9 69 -13 90 -6 35 -5 37 20 37 21 0 26 -5 26 -25z m310 -1 c0 -23 3 -25 43 -22 35 2 43 7 45 26 3 16 10 22 29 22 19 0 24 -4 19 -16 -4 -10 -9 -50 -13 -90 -3 -41 -9 -74 -13 -74 -4 0 -15 11 -24 25 -10 15 -26 25 -41 25 -13 0 -32 -11 -43 -25 -11 -14 -22 -25 -25 -25 -2 0 -7 30 -11 68 -3 37 -9 77 -12 90 -5 19 -2 22 20 22 21 0 26 -5 26 -26z m-166 -222 c24 -49 21 -87 -8 -106 -53 -34 -152 -29 -191 11 -19 18 -19 54 -2 96 l14 32 86 0 86 0 15 -33z m310 0 c24 -49 21 -89 -9 -108 -51 -33 -151 -27 -190 13 -19 19 -19 54 1 95 l15 33 84 0 84 0 15 -33z"
       id="path3739"
       style="fill:#ffffff" />
  </g>
  <text
     xml:space="preserve"
     style="font-style:normal;font-weight:normal;font-size:30px;line-height:1.25;font-family:sans-serif;letter-spacing:0px;word-spacing:0px;fill:#000000;fill-opacity:0;stroke:none;stroke-width:0.75"
     x="279.13385"
     y="228.34645"
     id="text4656"><tspan
       sodipodi:role="line"
       id="tspan4654"
       x="279.13385"
       y="255.71635"
       style="fill:#000000;fill-opacity:0;stroke-width:0.75" /></text>
  <text
     xml:space="preserve"
     style="font-style:normal;font-weight:normal;font-size:30px;line-height:1.25;font-family:sans-serif;letter-spacing:0px;word-spacing:0px;fill:#ffffff;fill-opacity:1;stroke:none;stroke-width:0.75;"
     x="388.97638"
     y="98.818901"
     id="text4660"><tspan
       sodipodi:role="line"
       id="tspan4658"
       x="388.97638"
       y="98.818901"
       style="font-style:normal;font-variant:normal;font-weight:bold;font-stretch:normal;font-size:48px;font-family:'Segoe Script';-inkscape-font-specification:'Segoe Script Bold';fill:#ffffff;stroke-width:0.75;">!</tspan></text>
  <text
     xml:space="preserve"
     style="font-style:normal;font-weight:normal;font-size:20px;line-height:1.25;font-family:sans-serif;letter-spacing:0px;word-spacing:0px;fill:#ffffff;fill-opacity:1;stroke:none;stroke-width:0.75;"
     x="368.11026"
     y="155.11812"
     id="text4664"><tspan
       sodipodi:role="line"
       id="tspan4662"
       x="368.11026"
       y="155.11812"
       style="font-size:20px;stroke-width:0.75;fill:#ffffff;-inkscape-font-specification:'Segoe Script Bold';font-family:'Segoe Script';font-weight:bold;font-style:normal;font-stretch:normal;font-variant:normal;">Sorry</tspan></text>
  <text
     xml:space="preserve"
     style="font-style:normal;font-weight:normal;font-size:30px;line-height:1.25;font-family:sans-serif;letter-spacing:0px;word-spacing:0px;fill:#000000;fill-opacity:1;stroke:none;stroke-width:0.75;"
     x="279.52759"
     y="229.13388"
     id="text4668"><tspan
       sodipodi:role="line"
       id="tspan4666"
       x="279.52759"
       y="229.13388"
       style="font-style:normal;font-variant:normal;font-weight:bold;font-stretch:normal;font-size:28px;font-family:'Segoe Script';-inkscape-font-specification:'Segoe Script Bold';fill:#ffffff;stroke-width:0.75">Page not Found</tspan></text>
  <text
     xml:space="preserve"
     style="font-style:normal;font-weight:normal;font-size:30px;line-height:1.25;font-family:sans-serif;letter-spacing:0px;word-spacing:0px;fill:#000000;fill-opacity:1;stroke:none;stroke-width:0.75"
     x="367.32285"
     y="308.66144"
     id="text4672"><tspan
       sodipodi:role="line"
       id="tspan4670"
       x="367.32285"
       y="308.66144"
       style="stroke-width:0.75;-inkscape-font-specification:'Segoe Script Bold Italic';font-family:'Segoe Script';font-weight:bold;font-style:italic;font-stretch:normal;font-variant:normal;fill:#ffffff">404</tspan></text>
</svg>
